<?xml version="1.0" standalone="no"?>
<!DOCTYPE svg PUBLIC "-//W3C//DTD SVG 20010904//EN"
 "http://www.w3.org/TR/2001/REC-SVG-20010904/DTD/svg10.dtd">
<svg version="1.0" xmlns="http://www.w3.org/2000/svg"
 width="1028.000000pt" height="1028.000000pt" viewBox="0 0 1028.000000 1028.000000"
 preserveAspectRatio="xMidYMid meet">

<g transform="translate(0.000000,1028.000000) scale(0.100000,-0.100000)"
fill="#3cdb7d" stroke="none">
<path d="M1535 8236 l-516 -1026 518 -1030 518 -1030 1031 0 1030 0 509 1025
c280 564 511 1025 514 1025 3 0 242 -462 531 -1025 l525 -1024 1036 -1 1036 0
500 1030 501 1030 -494 1017 c-272 560 -498 1021 -503 1026 -5 5 -246 -453
-536 -1017 l-527 -1026 -2060 2 -2060 3 -512 1017 c-282 560 -515 1020 -518
1024 -3 3 -239 -456 -523 -1020z"/>
<path d="M3601 4112 l-513 -1027 515 -1038 516 -1037 1039 0 1039 0 506 1040
505 1040 -499 1017 c-275 560 -503 1021 -508 1026 -5 5 -244 -451 -532 -1012
-288 -561 -527 -1021 -530 -1021 -3 0 -232 457 -509 1016 -278 558 -507 1017
-510 1019 -3 2 -237 -458 -519 -1023z"/>
</g>
</svg>
